<mxfile host="app.diagrams.net" agent="Mozilla/5.0 (X11; Ubuntu; Linux x86_64; rv:137.0) Gecko/20100101 Firefox/137.0" version="26.2.12">
  <diagram name="Page-1" id="249H9O3ESO4iGnF7Ed37">
    <mxGraphModel dx="1940" dy="1090" grid="1" gridSize="10" guides="1" tooltips="1" connect="1" arrows="1" fold="1" page="1" pageScale="1" pageWidth="850" pageHeight="1100" math="0" shadow="0">
      <root>
        <mxCell id="0" />
        <mxCell id="1" parent="0" />
        <mxCell id="Ak06c8CVFYhIIDF1MuHK-2" value="" style="rounded=1;whiteSpace=wrap;html=1;dashed=1;" vertex="1" parent="1">
          <mxGeometry x="1094.25" y="475" width="130.5" height="130" as="geometry" />
        </mxCell>
        <mxCell id="Ak06c8CVFYhIIDF1MuHK-3" style="edgeStyle=orthogonalEdgeStyle;rounded=0;orthogonalLoop=1;jettySize=auto;html=1;exitX=1;exitY=0.5;exitDx=0;exitDy=0;entryX=0;entryY=0.5;entryDx=0;entryDy=0;" edge="1" parent="1" source="Ak06c8CVFYhIIDF1MuHK-4" target="Ak06c8CVFYhIIDF1MuHK-2">
          <mxGeometry relative="1" as="geometry" />
        </mxCell>
        <mxCell id="Ak06c8CVFYhIIDF1MuHK-4" value="" style="rounded=1;whiteSpace=wrap;html=1;dashed=1;" vertex="1" parent="1">
          <mxGeometry x="875" y="460" width="175" height="160" as="geometry" />
        </mxCell>
        <mxCell id="Ak06c8CVFYhIIDF1MuHK-5" style="edgeStyle=orthogonalEdgeStyle;rounded=0;orthogonalLoop=1;jettySize=auto;html=1;exitX=1;exitY=0.5;exitDx=0;exitDy=0;entryX=0;entryY=0.5;entryDx=0;entryDy=0;" edge="1" parent="1" source="Ak06c8CVFYhIIDF1MuHK-8" target="Ak06c8CVFYhIIDF1MuHK-25">
          <mxGeometry relative="1" as="geometry" />
        </mxCell>
        <mxCell id="Ak06c8CVFYhIIDF1MuHK-7" style="edgeStyle=orthogonalEdgeStyle;rounded=0;orthogonalLoop=1;jettySize=auto;html=1;exitX=0.5;exitY=1;exitDx=0;exitDy=0;entryX=0.5;entryY=0;entryDx=0;entryDy=0;" edge="1" parent="1" source="Ak06c8CVFYhIIDF1MuHK-8" target="Ak06c8CVFYhIIDF1MuHK-29">
          <mxGeometry relative="1" as="geometry" />
        </mxCell>
        <mxCell id="Ak06c8CVFYhIIDF1MuHK-78" style="edgeStyle=orthogonalEdgeStyle;rounded=0;orthogonalLoop=1;jettySize=auto;html=1;exitX=1;exitY=0.25;exitDx=0;exitDy=0;entryX=1;entryY=0.5;entryDx=0;entryDy=0;" edge="1" parent="1" source="Ak06c8CVFYhIIDF1MuHK-8" target="Ak06c8CVFYhIIDF1MuHK-10">
          <mxGeometry relative="1" as="geometry">
            <Array as="points">
              <mxPoint x="580" y="367" />
              <mxPoint x="580" y="138" />
            </Array>
          </mxGeometry>
        </mxCell>
        <mxCell id="Ak06c8CVFYhIIDF1MuHK-8" value="" style="rounded=1;whiteSpace=wrap;html=1;dashed=1;" vertex="1" parent="1">
          <mxGeometry x="270" y="340" width="260" height="110" as="geometry" />
        </mxCell>
        <mxCell id="Ak06c8CVFYhIIDF1MuHK-9" style="edgeStyle=orthogonalEdgeStyle;rounded=0;orthogonalLoop=1;jettySize=auto;html=1;exitX=0;exitY=0.5;exitDx=0;exitDy=0;" edge="1" parent="1" source="Ak06c8CVFYhIIDF1MuHK-10" target="Ak06c8CVFYhIIDF1MuHK-13">
          <mxGeometry relative="1" as="geometry" />
        </mxCell>
        <mxCell id="Ak06c8CVFYhIIDF1MuHK-10" value="" style="rounded=1;whiteSpace=wrap;html=1;dashed=1;" vertex="1" parent="1">
          <mxGeometry x="280" y="91" width="180" height="94" as="geometry" />
        </mxCell>
        <mxCell id="Ak06c8CVFYhIIDF1MuHK-11" value="" style="sketch=0;pointerEvents=1;shadow=0;dashed=0;html=1;strokeColor=none;fillColor=#434445;aspect=fixed;labelPosition=center;verticalLabelPosition=bottom;verticalAlign=top;align=center;outlineConnect=0;shape=mxgraph.vvd.laptop;" vertex="1" parent="1">
          <mxGeometry x="305" y="113" width="50" height="36" as="geometry" />
        </mxCell>
        <mxCell id="Ak06c8CVFYhIIDF1MuHK-12" value="" style="sketch=0;verticalLabelPosition=bottom;sketch=0;aspect=fixed;html=1;verticalAlign=top;strokeColor=none;fillColor=#000000;align=center;outlineConnect=0;pointerEvents=1;shape=mxgraph.citrix2.mobile;" vertex="1" parent="1">
          <mxGeometry x="410" y="106" width="25.255" height="50" as="geometry" />
        </mxCell>
        <mxCell id="Ak06c8CVFYhIIDF1MuHK-13" value="" style="image;aspect=fixed;html=1;points=[];align=center;fontSize=12;image=img/lib/azure2/networking/DNS_Zones.svg;" vertex="1" parent="1">
          <mxGeometry x="180" y="106" width="64" height="64" as="geometry" />
        </mxCell>
        <mxCell id="Ak06c8CVFYhIIDF1MuHK-14" style="edgeStyle=orthogonalEdgeStyle;rounded=0;orthogonalLoop=1;jettySize=auto;html=1;exitX=0.5;exitY=1;exitDx=0;exitDy=0;" edge="1" parent="1" source="Ak06c8CVFYhIIDF1MuHK-10" target="Ak06c8CVFYhIIDF1MuHK-17">
          <mxGeometry relative="1" as="geometry" />
        </mxCell>
        <mxCell id="Ak06c8CVFYhIIDF1MuHK-15" value="Web browser" style="text;html=1;align=center;verticalAlign=middle;whiteSpace=wrap;rounded=0;" vertex="1" parent="1">
          <mxGeometry x="292.5" y="155" width="75" height="30" as="geometry" />
        </mxCell>
        <mxCell id="Ak06c8CVFYhIIDF1MuHK-16" value="Mobile app" style="text;html=1;align=center;verticalAlign=middle;whiteSpace=wrap;rounded=0;" vertex="1" parent="1">
          <mxGeometry x="380" y="156" width="75" height="30" as="geometry" />
        </mxCell>
        <mxCell id="Ak06c8CVFYhIIDF1MuHK-69" style="edgeStyle=orthogonalEdgeStyle;rounded=0;orthogonalLoop=1;jettySize=auto;html=1;entryX=0.5;entryY=0;entryDx=0;entryDy=0;" edge="1" parent="1" source="Ak06c8CVFYhIIDF1MuHK-17" target="Ak06c8CVFYhIIDF1MuHK-8">
          <mxGeometry relative="1" as="geometry" />
        </mxCell>
        <mxCell id="Ak06c8CVFYhIIDF1MuHK-17" value="" style="sketch=0;outlineConnect=0;fontColor=#232F3E;gradientColor=none;fillColor=#8C4FFF;strokeColor=none;dashed=0;verticalLabelPosition=bottom;verticalAlign=top;align=center;html=1;fontSize=12;fontStyle=0;aspect=fixed;pointerEvents=1;shape=mxgraph.aws4.application_load_balancer;" vertex="1" parent="1">
          <mxGeometry x="331" y="230" width="78" height="78" as="geometry" />
        </mxCell>
        <mxCell id="Ak06c8CVFYhIIDF1MuHK-18" value="Load balancer" style="text;html=1;align=center;verticalAlign=middle;whiteSpace=wrap;rounded=0;" vertex="1" parent="1">
          <mxGeometry x="409" y="254" width="81" height="30" as="geometry" />
        </mxCell>
        <mxCell id="Ak06c8CVFYhIIDF1MuHK-19" value="Step 1: user sends a get request v1/me/feed" style="text;html=1;align=center;verticalAlign=middle;whiteSpace=wrap;rounded=0;" vertex="1" parent="1">
          <mxGeometry x="369" y="190" width="191" height="30" as="geometry" />
        </mxCell>
        <mxCell id="Ak06c8CVFYhIIDF1MuHK-20" value="" style="sketch=0;pointerEvents=1;shadow=0;dashed=0;html=1;strokeColor=none;labelPosition=center;verticalLabelPosition=bottom;verticalAlign=top;outlineConnect=0;align=center;shape=mxgraph.office.servers.virtual_web_server;fillColor=#2072B8;" vertex="1" parent="1">
          <mxGeometry x="292.5" y="360" width="44" height="55" as="geometry" />
        </mxCell>
        <mxCell id="Ak06c8CVFYhIIDF1MuHK-21" value="" style="sketch=0;pointerEvents=1;shadow=0;dashed=0;html=1;strokeColor=none;labelPosition=center;verticalLabelPosition=bottom;verticalAlign=top;outlineConnect=0;align=center;shape=mxgraph.office.servers.virtual_web_server;fillColor=#2072B8;" vertex="1" parent="1">
          <mxGeometry x="348" y="360" width="44" height="55" as="geometry" />
        </mxCell>
        <mxCell id="Ak06c8CVFYhIIDF1MuHK-22" value="Web servers" style="text;html=1;align=center;verticalAlign=middle;whiteSpace=wrap;rounded=0;" vertex="1" parent="1">
          <mxGeometry x="292.5" y="420" width="80" height="30" as="geometry" />
        </mxCell>
        <mxCell id="Ak06c8CVFYhIIDF1MuHK-23" value="Authentication" style="rounded=1;whiteSpace=wrap;html=1;" vertex="1" parent="1">
          <mxGeometry x="400" y="350" width="120" height="30" as="geometry" />
        </mxCell>
        <mxCell id="Ak06c8CVFYhIIDF1MuHK-24" value="Rate Limiting" style="rounded=1;whiteSpace=wrap;html=1;" vertex="1" parent="1">
          <mxGeometry x="400" y="380" width="120" height="30" as="geometry" />
        </mxCell>
        <mxCell id="Ak06c8CVFYhIIDF1MuHK-25" value="Notification Service" style="rounded=1;whiteSpace=wrap;html=1;" vertex="1" parent="1">
          <mxGeometry x="600" y="365" width="120" height="60" as="geometry" />
        </mxCell>
        <mxCell id="Ak06c8CVFYhIIDF1MuHK-28" style="edgeStyle=orthogonalEdgeStyle;rounded=0;orthogonalLoop=1;jettySize=auto;html=1;exitX=0.5;exitY=1;exitDx=0;exitDy=0;entryX=0.5;entryY=0;entryDx=0;entryDy=0;" edge="1" parent="1" source="Ak06c8CVFYhIIDF1MuHK-29" target="Ak06c8CVFYhIIDF1MuHK-63">
          <mxGeometry relative="1" as="geometry">
            <mxPoint x="400" y="615" as="targetPoint" />
          </mxGeometry>
        </mxCell>
        <mxCell id="Ak06c8CVFYhIIDF1MuHK-70" style="edgeStyle=orthogonalEdgeStyle;rounded=0;orthogonalLoop=1;jettySize=auto;html=1;exitX=1;exitY=0.5;exitDx=0;exitDy=0;entryX=0;entryY=0.5;entryDx=0;entryDy=0;" edge="1" parent="1" source="Ak06c8CVFYhIIDF1MuHK-29" target="Ak06c8CVFYhIIDF1MuHK-4">
          <mxGeometry relative="1" as="geometry" />
        </mxCell>
        <mxCell id="Ak06c8CVFYhIIDF1MuHK-29" value="News Feed Service" style="rounded=1;whiteSpace=wrap;html=1;" vertex="1" parent="1">
          <mxGeometry x="340" y="510" width="120" height="60" as="geometry" />
        </mxCell>
        <mxCell id="Ak06c8CVFYhIIDF1MuHK-33" value="Cache" style="rounded=1;whiteSpace=wrap;html=1;fillColor=#1ba1e2;fontColor=#ffffff;strokeColor=#006EAF;" vertex="1" parent="1">
          <mxGeometry x="910" y="470" width="50" height="40" as="geometry" />
        </mxCell>
        <mxCell id="Ak06c8CVFYhIIDF1MuHK-34" value="Cache" style="rounded=1;whiteSpace=wrap;html=1;fillColor=#1ba1e2;fontColor=#ffffff;strokeColor=#006EAF;" vertex="1" parent="1">
          <mxGeometry x="940" y="500" width="50" height="40" as="geometry" />
        </mxCell>
        <mxCell id="Ak06c8CVFYhIIDF1MuHK-35" value="Cache" style="rounded=1;whiteSpace=wrap;html=1;fillColor=#1ba1e2;fontColor=#ffffff;strokeColor=#006EAF;" vertex="1" parent="1">
          <mxGeometry x="960" y="530" width="50" height="40" as="geometry" />
        </mxCell>
        <mxCell id="Ak06c8CVFYhIIDF1MuHK-38" value="" style="sketch=0;shadow=0;dashed=0;html=1;strokeColor=none;fillColor=#505050;labelPosition=center;verticalLabelPosition=bottom;verticalAlign=top;outlineConnect=0;align=center;shape=mxgraph.office.databases.database_availability_group;" vertex="1" parent="1">
          <mxGeometry x="1130" y="495.5" width="59" height="59" as="geometry" />
        </mxCell>
        <mxCell id="Ak06c8CVFYhIIDF1MuHK-39" value="User Cache" style="text;html=1;align=center;verticalAlign=middle;whiteSpace=wrap;rounded=0;" vertex="1" parent="1">
          <mxGeometry x="930" y="580" width="70" height="30" as="geometry" />
        </mxCell>
        <mxCell id="Ak06c8CVFYhIIDF1MuHK-40" value="User DB" style="text;html=1;align=center;verticalAlign=middle;whiteSpace=wrap;rounded=0;" vertex="1" parent="1">
          <mxGeometry x="1124.5" y="570" width="70" height="30" as="geometry" />
        </mxCell>
        <mxCell id="Ak06c8CVFYhIIDF1MuHK-41" style="edgeStyle=orthogonalEdgeStyle;rounded=0;orthogonalLoop=1;jettySize=auto;html=1;exitX=0.5;exitY=1;exitDx=0;exitDy=0;entryX=0.5;entryY=0;entryDx=0;entryDy=0;" edge="1" parent="1" source="Ak06c8CVFYhIIDF1MuHK-42" target="Ak06c8CVFYhIIDF1MuHK-47">
          <mxGeometry relative="1" as="geometry" />
        </mxCell>
        <mxCell id="Ak06c8CVFYhIIDF1MuHK-42" value="" style="rounded=1;whiteSpace=wrap;html=1;dashed=1;" vertex="1" parent="1">
          <mxGeometry x="875" y="657.5" width="175" height="160" as="geometry" />
        </mxCell>
        <mxCell id="Ak06c8CVFYhIIDF1MuHK-43" value="Cache" style="rounded=1;whiteSpace=wrap;html=1;fillColor=#1ba1e2;fontColor=#ffffff;strokeColor=#006EAF;" vertex="1" parent="1">
          <mxGeometry x="910" y="667.5" width="50" height="40" as="geometry" />
        </mxCell>
        <mxCell id="Ak06c8CVFYhIIDF1MuHK-44" value="Cache" style="rounded=1;whiteSpace=wrap;html=1;fillColor=#1ba1e2;fontColor=#ffffff;strokeColor=#006EAF;" vertex="1" parent="1">
          <mxGeometry x="940" y="697.5" width="50" height="40" as="geometry" />
        </mxCell>
        <mxCell id="Ak06c8CVFYhIIDF1MuHK-45" value="Cache" style="rounded=1;whiteSpace=wrap;html=1;fillColor=#1ba1e2;fontColor=#ffffff;strokeColor=#006EAF;" vertex="1" parent="1">
          <mxGeometry x="960" y="727.5" width="50" height="40" as="geometry" />
        </mxCell>
        <mxCell id="Ak06c8CVFYhIIDF1MuHK-46" value="Post Cache" style="text;html=1;align=center;verticalAlign=middle;whiteSpace=wrap;rounded=0;" vertex="1" parent="1">
          <mxGeometry x="930" y="777.5" width="70" height="30" as="geometry" />
        </mxCell>
        <mxCell id="Ak06c8CVFYhIIDF1MuHK-47" value="" style="rounded=1;whiteSpace=wrap;html=1;dashed=1;" vertex="1" parent="1">
          <mxGeometry x="897.25" y="872.5" width="130.5" height="130" as="geometry" />
        </mxCell>
        <mxCell id="Ak06c8CVFYhIIDF1MuHK-48" value="" style="sketch=0;shadow=0;dashed=0;html=1;strokeColor=none;fillColor=#505050;labelPosition=center;verticalLabelPosition=bottom;verticalAlign=top;outlineConnect=0;align=center;shape=mxgraph.office.databases.database_availability_group;" vertex="1" parent="1">
          <mxGeometry x="933" y="893" width="59" height="59" as="geometry" />
        </mxCell>
        <mxCell id="Ak06c8CVFYhIIDF1MuHK-49" value="Post DB" style="text;html=1;align=center;verticalAlign=middle;whiteSpace=wrap;rounded=0;" vertex="1" parent="1">
          <mxGeometry x="927.5" y="967.5" width="70" height="30" as="geometry" />
        </mxCell>
        <mxCell id="Ak06c8CVFYhIIDF1MuHK-63" value="" style="rounded=1;whiteSpace=wrap;html=1;dashed=1;" vertex="1" parent="1">
          <mxGeometry x="312.5" y="687.5" width="175" height="160" as="geometry" />
        </mxCell>
        <mxCell id="Ak06c8CVFYhIIDF1MuHK-64" value="Cache" style="rounded=1;whiteSpace=wrap;html=1;fillColor=#1ba1e2;fontColor=#ffffff;strokeColor=#006EAF;" vertex="1" parent="1">
          <mxGeometry x="347.76" y="697.5" width="50" height="40" as="geometry" />
        </mxCell>
        <mxCell id="Ak06c8CVFYhIIDF1MuHK-65" value="Cache" style="rounded=1;whiteSpace=wrap;html=1;fillColor=#1ba1e2;fontColor=#ffffff;strokeColor=#006EAF;" vertex="1" parent="1">
          <mxGeometry x="377.76" y="727.5" width="50" height="40" as="geometry" />
        </mxCell>
        <mxCell id="Ak06c8CVFYhIIDF1MuHK-66" value="Cache" style="rounded=1;whiteSpace=wrap;html=1;fillColor=#1ba1e2;fontColor=#ffffff;strokeColor=#006EAF;" vertex="1" parent="1">
          <mxGeometry x="397.76" y="757.5" width="50" height="40" as="geometry" />
        </mxCell>
        <mxCell id="Ak06c8CVFYhIIDF1MuHK-67" value="News Feed Cache" style="text;html=1;align=center;verticalAlign=middle;whiteSpace=wrap;rounded=0;" vertex="1" parent="1">
          <mxGeometry x="367.76" y="807.5" width="70" height="30" as="geometry" />
        </mxCell>
        <mxCell id="Ak06c8CVFYhIIDF1MuHK-71" value="" style="endArrow=classic;html=1;rounded=0;entryX=0;entryY=0.5;entryDx=0;entryDy=0;exitX=1;exitY=0.5;exitDx=0;exitDy=0;" edge="1" parent="1" source="Ak06c8CVFYhIIDF1MuHK-29" target="Ak06c8CVFYhIIDF1MuHK-42">
          <mxGeometry width="50" height="50" relative="1" as="geometry">
            <mxPoint x="200" y="830" as="sourcePoint" />
            <mxPoint x="250" y="780" as="targetPoint" />
          </mxGeometry>
        </mxCell>
        <mxCell id="Ak06c8CVFYhIIDF1MuHK-73" value="Step 2: Load balancer distributes the requests" style="text;html=1;align=center;verticalAlign=middle;whiteSpace=wrap;rounded=0;" vertex="1" parent="1">
          <mxGeometry x="105" y="300" width="250" height="30" as="geometry" />
        </mxCell>
        <mxCell id="Ak06c8CVFYhIIDF1MuHK-74" value="Step 3: Received the request to fetch news feeds" style="text;html=1;align=center;verticalAlign=middle;whiteSpace=wrap;rounded=0;" vertex="1" parent="1">
          <mxGeometry x="400" y="460" width="170" height="30" as="geometry" />
        </mxCell>
        <mxCell id="Ak06c8CVFYhIIDF1MuHK-75" value="Step 4: News feed service gets a list of post IDs from the news feed cache" style="text;html=1;align=center;verticalAlign=middle;whiteSpace=wrap;rounded=0;" vertex="1" parent="1">
          <mxGeometry x="200" y="590" width="192" height="60" as="geometry" />
        </mxCell>
        <mxCell id="Ak06c8CVFYhIIDF1MuHK-76" value="Step 5: Fetch user name, profiles,..." style="text;html=1;align=center;verticalAlign=middle;whiteSpace=wrap;rounded=0;" vertex="1" parent="1">
          <mxGeometry x="470" y="505.5" width="230" height="30" as="geometry" />
        </mxCell>
        <mxCell id="Ak06c8CVFYhIIDF1MuHK-77" value="Step 5: Fetch user&#39;s posts" style="text;html=1;align=center;verticalAlign=middle;whiteSpace=wrap;rounded=0;rotation=30;" vertex="1" parent="1">
          <mxGeometry x="545" y="600" width="230" height="30" as="geometry" />
        </mxCell>
        <mxCell id="Ak06c8CVFYhIIDF1MuHK-80" value="Step 6: Return user&#39;s id, posts for rendering" style="text;html=1;align=center;verticalAlign=middle;whiteSpace=wrap;rounded=0;" vertex="1" parent="1">
          <mxGeometry x="580" y="240" width="170" height="30" as="geometry" />
        </mxCell>
      </root>
    </mxGraphModel>
  </diagram>
</mxfile>
